<svg width="345" height="199" viewBox="0 0 345 199" fill="none" xmlns="http://www.w3.org/2000/svg">
<path d="M0 102.183V88.2637H59.9359V102.183H38.4337V159.176H21.5367V102.183H0Z" fill="#114737"/>
<path d="M271.793 88.2637V102.183H240.492V159.176H223.353V88.2637H271.793Z" fill="#114737"/>
<path fill-rule="evenodd" clip-rule="evenodd" d="M146.374 88.2637H163.479V129.121H164.068L191.976 88.2637H206.726V159.176H189.586V118.249H189.136L160.882 159.176H146.374V88.2637Z" fill="#114737"/>
<path fill-rule="evenodd" clip-rule="evenodd" d="M80.6402 159.176H62.2197L86.1456 88.2637H108.963L132.889 159.176H114.469L109.794 144.287H85.3051L80.6402 159.176ZM97.2602 106.13H97.8142L105.707 131.268H89.3842L97.2602 106.13Z" fill="#114737"/>
<path fill-rule="evenodd" clip-rule="evenodd" d="M292.532 159.176H274.112L298.038 88.2637H320.856L344.781 159.176H326.361L321.686 144.287H297.197L292.532 159.176ZM309.152 106.13H309.706L317.599 131.268H301.276L309.152 106.13Z" fill="#114737"/>
<path d="M325.695 174.496V172.268H341.254V174.496H334.731V193.013H332.219V174.496H325.695Z" fill="#114737"/>
<path d="M294.59 193.013V172.268H297.102V181.506H308.164V172.268H310.676V193.013H308.164V183.734H297.102V193.013H294.59Z" fill="#114737"/>
<path d="M266.418 193.013V172.268H278.938V174.496H268.93V181.506H278.29V183.734H268.93V190.785H279.1V193.013H266.418Z" fill="#114737"/>
<path d="M229.914 172.268H232.912L239.963 189.488H240.206L247.256 172.268H250.254V193.013H247.904V177.251H247.702L241.219 193.013H238.95L232.467 177.251H232.264V193.013H229.914V172.268Z" fill="#114737"/>
<path d="M213.72 172.268V193.013H211.208V174.496H200.754V193.013H198.242V172.268H213.72Z" fill="#114737"/>
<path d="M182.853 182.641C182.853 184.829 182.458 186.72 181.668 188.313C180.878 189.907 179.794 191.136 178.417 192.001C177.039 192.865 175.466 193.297 173.696 193.297C171.927 193.297 170.353 192.865 168.976 192.001C167.598 191.136 166.514 189.907 165.724 188.313C164.934 186.72 164.539 184.829 164.539 182.641C164.539 180.453 164.934 178.562 165.724 176.968C166.514 175.374 167.598 174.145 168.976 173.281C170.353 172.417 171.927 171.984 173.696 171.984C175.466 171.984 177.039 172.417 178.417 173.281C179.794 174.145 180.878 175.374 181.668 176.968C182.458 178.562 182.853 180.453 182.853 182.641ZM180.422 182.641C180.422 180.844 180.122 179.328 179.521 178.093C178.927 176.857 178.12 175.921 177.1 175.287C176.087 174.652 174.952 174.334 173.696 174.334C172.44 174.334 171.302 174.652 170.283 175.287C169.27 175.921 168.463 176.857 167.862 178.093C167.267 179.328 166.97 180.844 166.97 182.641C166.97 184.437 167.267 185.953 167.862 187.189C168.463 188.425 169.27 189.36 170.283 189.995C171.302 190.63 172.44 190.947 173.696 190.947C174.952 190.947 176.087 190.63 177.1 189.995C178.12 189.36 178.927 188.425 179.521 187.189C180.122 185.953 180.422 184.437 180.422 182.641Z" fill="#114737"/>
<path d="M132.109 193.013V190.704H132.717C133.582 190.704 134.253 190.427 134.733 189.873C135.212 189.319 135.557 188.424 135.766 187.189C135.982 185.953 136.127 184.315 136.202 182.276L136.566 172.268H149.208V193.013H146.696V174.496H138.957L138.633 182.762C138.552 184.936 138.353 186.787 138.035 188.313C137.718 189.839 137.161 191.004 136.364 191.808C135.567 192.611 134.405 193.013 132.879 193.013H132.109Z" fill="#114737"/>
<path d="M105.719 193.013V172.268H118.239V174.496H108.231V181.506H117.591V183.734H108.231V190.785H118.401V193.013H105.719Z" fill="#114737"/>
<path d="M76.0391 193.013V172.268H83.2919C84.7371 172.268 85.929 172.517 86.8677 173.017C87.8063 173.51 88.5053 174.175 88.9645 175.013C89.4237 175.843 89.6533 176.765 89.6533 177.778C89.6533 178.67 89.4946 179.406 89.1772 179.986C88.8666 180.567 88.4546 181.026 87.9414 181.364C87.4349 181.702 86.8845 181.952 86.2903 182.114V182.316C86.9251 182.357 87.5632 182.58 88.2048 182.985C88.8463 183.39 89.3832 183.971 89.8154 184.727C90.2476 185.483 90.4637 186.409 90.4637 187.503C90.4637 188.543 90.2273 189.478 89.7546 190.308C89.2819 191.139 88.5357 191.798 87.516 192.284C86.4962 192.77 85.1693 193.013 83.535 193.013H76.0391ZM78.5512 190.785H83.535C85.176 190.785 86.3409 190.467 87.0297 189.832C87.7253 189.191 88.0731 188.414 88.0731 187.503C88.0731 186.8 87.8941 186.152 87.5362 185.558C87.1783 184.957 86.6684 184.477 86.0066 184.119C85.3448 183.755 84.5615 183.572 83.6566 183.572H78.5512V190.785ZM78.5512 181.384H83.2109C83.9672 181.384 84.6493 181.236 85.257 180.939C85.8716 180.641 86.3578 180.223 86.7157 179.682C87.0804 179.142 87.2627 178.507 87.2627 177.778C87.2627 176.866 86.9453 176.093 86.3105 175.458C85.6757 174.817 84.6695 174.496 83.2919 174.496H78.5512V181.384Z" fill="#114737"/>
<path d="M47.8672 193.013V172.268H60.3874V174.496H50.3793V181.506H59.7391V183.734H50.3793V190.785H60.5495V193.013H47.8672Z" fill="#114737"/>
<path d="M13.5391 198.037V190.785H14.8762C15.3354 190.366 15.7676 189.775 16.1728 189.012C16.5847 188.242 16.9325 187.216 17.2161 185.932C17.5065 184.643 17.699 183.005 17.7935 181.02L18.2392 172.268H30.5569V190.785H32.9475V197.997H30.5569V193.013H15.9297V198.037H13.5391ZM17.8746 190.785H28.1663V174.496H20.5083L20.1841 181.02C20.1031 182.532 19.9613 183.903 19.7587 185.132C19.5561 186.355 19.2961 187.438 18.9787 188.384C18.6613 189.323 18.2932 190.123 17.8746 190.785Z" fill="#114737"/>
<path d="M305.973 72H289.973L282.953 66.5L269.473 63L267.953 52.5L257.973 50.5L251.473 52.5L245.973 48H239.473L233.473 42L226.473 40V36L218.973 38.5L214.473 31.5L211.973 24.5L188.453 41.5L229.973 72H185.453L191.453 64.5L168.973 56.5L163.473 45L146.973 56.5V49.5L144.973 40.5L134.973 46L136.473 36.5L133.473 16L99.4531 40.5L91.9727 33.7587L48.9531 72H34.9531L91.9727 21.5L97.4727 26L132.973 0L178.453 33.7587L211.973 10L257.973 42L269.473 40L305.973 72Z" fill="#114737"/>
<path d="M181.919 76H189.953C189.936 79.1273 188.755 81.6391 186.41 83.5355C184.081 85.4318 180.921 86.38 176.928 86.38C172.936 86.38 169.767 85.4318 167.422 83.5355C165.093 81.6391 163.937 79.1273 163.953 76H171.913C171.896 77.0979 172.271 78.096 173.036 78.9942C173.801 79.8925 175.098 80.3416 176.928 80.3416C178.708 80.3416 179.981 79.9008 180.746 79.0192C181.511 78.1375 181.902 77.1311 181.919 76Z" fill="#114737"/>
</svg>
